<?xml version="1.0" encoding="UTF-8"?>
<svg width="1000px" height="450px" viewBox="0 0 1000 450" version="1.1" xmlns="http://www.w3.org/2000/svg" xmlns:xlink="http://www.w3.org/1999/xlink">
    <!-- Generator: Sketch 52.2 (67145) - http://www.bohemiancoding.com/sketch -->
    <title>Artboard</title>
    <desc>Created with Sketch.</desc>
    <g id="Artboard" stroke="none" stroke-width="1" fill="none" fill-rule="evenodd">
        <rect id="Rectangle" fill="#4D28BE" x="0" y="0" width="1000" height="450"></rect>
        <path d="M248.9375,222.45 L256.2515,222.45 C257.539506,222.45 258.597496,222.143336 259.4255,221.53 C260.253504,220.916664 260.6675,219.920007 260.6675,218.54 C260.6675,217.773329 260.529501,217.144669 260.2535,216.654 C259.977499,216.163331 259.609502,215.780001 259.1495,215.504 C258.689498,215.227999 258.160503,215.036334 257.5625,214.929 C256.964497,214.821666 256.343503,214.768 255.6995,214.768 L248.9375,214.768 L248.9375,222.45 Z M241.7155,209.156 L257.1715,209.156 C258.735508,209.156 260.161494,209.293999 261.4495,209.57 C262.737506,209.846001 263.841495,210.29833 264.7615,210.927 C265.681505,211.55567 266.394497,212.391328 266.9005,213.434 C267.406503,214.476672 267.6595,215.764659 267.6595,217.298 C267.6595,218.954008 267.283837,220.333994 266.5325,221.438 C265.781163,222.542006 264.669507,223.446663 263.1975,224.152 C265.22151,224.73467 266.731828,225.754326 267.7285,227.211 C268.725172,228.667674 269.2235,230.423323 269.2235,232.478 C269.2235,234.134008 268.901503,235.567661 268.2575,236.779 C267.613497,237.990339 266.747172,238.97933 265.6585,239.746 C264.569828,240.512671 263.32784,241.079998 261.9325,241.448 C260.53716,241.816002 259.103507,242 257.6315,242 L241.7155,242 L241.7155,209.156 Z M248.9375,236.388 L256.6655,236.388 C257.370837,236.388 258.045497,236.319001 258.6895,236.181 C259.333503,236.042999 259.900831,235.813002 260.3915,235.491 C260.882169,235.168998 261.273165,234.732003 261.5645,234.18 C261.855835,233.627997 262.0015,232.922671 262.0015,232.064 C262.0015,230.377325 261.526171,229.17367 260.5755,228.453 C259.624829,227.73233 258.367508,227.372 256.8035,227.372 L248.9375,227.372 L248.9375,236.388 Z M338.442,229.304 L346.952,229.304 L342.812,217.252 L342.72,217.252 L338.442,229.304 Z M339.132,209.156 L346.538,209.156 L358.82,242 L351.322,242 L348.838,234.686 L336.556,234.686 L333.98,242 L326.712,242 L339.132,209.156 Z M422.6565,231.098 C422.6565,232.202006 422.855831,233.137329 423.2545,233.904 C423.653169,234.67067 424.182163,235.291664 424.8415,235.767 C425.500837,236.242336 426.275162,236.594999 427.1645,236.825 C428.053838,237.055001 428.973829,237.17 429.9245,237.17 C430.568503,237.17 431.258496,237.116334 431.9945,237.009 C432.730504,236.901666 433.420497,236.694668 434.0645,236.388 C434.708503,236.081332 435.245165,235.659669 435.6745,235.123 C436.103835,234.586331 436.3185,233.904004 436.3185,233.076 C436.3185,232.186662 436.034836,231.466003 435.4675,230.914 C434.900164,230.361997 434.156505,229.902002 433.2365,229.534 C432.316495,229.165998 431.273839,228.844001 430.1085,228.568 C428.943161,228.291999 427.762506,227.985335 426.5665,227.648 C425.339827,227.341332 424.143839,226.965669 422.9785,226.521 C421.813161,226.076331 420.770505,225.501337 419.8505,224.796 C418.930495,224.090663 418.186836,223.209005 417.6195,222.151 C417.052164,221.092995 416.7685,219.812674 416.7685,218.31 C416.7685,216.623325 417.12883,215.159006 417.8495,213.917 C418.57017,212.674994 419.513161,211.640004 420.6785,210.812 C421.843839,209.983996 423.162493,209.370669 424.6345,208.972 C426.106507,208.573331 427.578493,208.374 429.0505,208.374 C430.767842,208.374 432.416159,208.565665 433.9955,208.949 C435.574841,209.332335 436.977827,209.953329 438.2045,210.812 C439.431173,211.670671 440.40483,212.766993 441.1255,214.101 C441.84617,215.435007 442.2065,217.052657 442.2065,218.954 L435.2145,218.954 C435.153166,217.972662 434.946168,217.160003 434.5935,216.516 C434.240832,215.871997 433.77317,215.366002 433.1905,214.998 C432.60783,214.629998 431.940837,214.369334 431.1895,214.216 C430.438163,214.062666 429.617838,213.986 428.7285,213.986 C428.14583,213.986 427.56317,214.047333 426.9805,214.17 C426.39783,214.292667 425.868836,214.507332 425.3935,214.814 C424.918164,215.120668 424.527168,215.503998 424.2205,215.964 C423.913832,216.424002 423.7605,217.006663 423.7605,217.712 C423.7605,218.356003 423.883165,218.877331 424.1285,219.276 C424.373835,219.674669 424.85683,220.042665 425.5775,220.38 C426.29817,220.717335 427.294827,221.054665 428.5675,221.392 C429.840173,221.729335 431.503823,222.158664 433.5585,222.68 C434.171836,222.802667 435.022828,223.024998 436.1115,223.347 C437.200172,223.669002 438.281161,224.182663 439.3545,224.888 C440.427839,225.593337 441.355496,226.536327 442.1375,227.717 C442.919504,228.897673 443.3105,230.407991 443.3105,232.248 C443.3105,233.750674 443.01917,235.145994 442.4365,236.434 C441.85383,237.722006 440.987506,238.833662 439.8375,239.769 C438.687494,240.704338 437.261509,241.432664 435.5595,241.954 C433.857491,242.475336 431.887178,242.736 429.6485,242.736 C427.839158,242.736 426.083509,242.513669 424.3815,242.069 C422.679491,241.624331 421.17684,240.926671 419.8735,239.976 C418.57016,239.025329 417.535171,237.814007 416.7685,236.342 C416.00183,234.869993 415.633833,233.12201 415.6645,231.098 L422.6565,231.098 Z M525.547,220.196 C525.424333,219.367996 525.148335,218.609003 524.719,217.919 C524.289665,217.228997 523.753003,216.623336 523.109,216.102 C522.464997,215.580664 521.736671,215.174335 520.924,214.883 C520.111329,214.591665 519.260338,214.446 518.371,214.446 C516.745659,214.446 515.365672,214.76033 514.231,215.389 C513.096328,216.01767 512.176337,216.860995 511.471,217.919 C510.765663,218.977005 510.252002,220.18066 509.93,221.53 C509.607998,222.87934 509.447,224.274659 509.447,225.716 C509.447,227.096007 509.607998,228.43766 509.93,229.741 C510.252002,231.04434 510.765663,232.217328 511.471,233.26 C512.176337,234.302672 513.096328,235.13833 514.231,235.767 C515.365672,236.39567 516.745659,236.71 518.371,236.71 C520.579011,236.71 522.303994,236.03534 523.546,234.686 C524.788006,233.33666 525.546999,231.558011 525.823,229.35 L532.815,229.35 C532.630999,231.404677 532.155671,233.259992 531.389,234.916 C530.622329,236.572008 529.61034,237.982661 528.353,239.148 C527.09566,240.313339 525.623675,241.202664 523.937,241.816 C522.250325,242.429336 520.39501,242.736 518.371,242.736 C515.856321,242.736 513.594677,242.299004 511.586,241.425 C509.577323,240.550996 507.883007,239.347341 506.503,237.814 C505.122993,236.280659 504.065004,234.47901 503.329,232.409 C502.592996,230.33899 502.225,228.108012 502.225,225.716 C502.225,223.262654 502.592996,220.985677 503.329,218.885 C504.065004,216.784323 505.122993,214.952008 506.503,213.388 C507.883007,211.823992 509.577323,210.597338 511.586,209.708 C513.594677,208.818662 515.856321,208.374 518.371,208.374 C520.180342,208.374 521.889992,208.634664 523.5,209.156 C525.110008,209.677336 526.551327,210.436328 527.824,211.433 C529.096673,212.429672 530.146996,213.663993 530.975,215.136 C531.803004,216.608007 532.324332,218.294657 532.539,220.196 L525.547,220.196 Z M598.7215,231.098 C598.7215,232.202006 598.920831,233.137329 599.3195,233.904 C599.718169,234.67067 600.247163,235.291664 600.9065,235.767 C601.565837,236.242336 602.340162,236.594999 603.2295,236.825 C604.118838,237.055001 605.038829,237.17 605.9895,237.17 C606.633503,237.17 607.323496,237.116334 608.0595,237.009 C608.795504,236.901666 609.485497,236.694668 610.1295,236.388 C610.773503,236.081332 611.310165,235.659669 611.7395,235.123 C612.168835,234.586331 612.3835,233.904004 612.3835,233.076 C612.3835,232.186662 612.099836,231.466003 611.5325,230.914 C610.965164,230.361997 610.221505,229.902002 609.3015,229.534 C608.381495,229.165998 607.338839,228.844001 606.1735,228.568 C605.008161,228.291999 603.827506,227.985335 602.6315,227.648 C601.404827,227.341332 600.208839,226.965669 599.0435,226.521 C597.878161,226.076331 596.835505,225.501337 595.9155,224.796 C594.995495,224.090663 594.251836,223.209005 593.6845,222.151 C593.117164,221.092995 592.8335,219.812674 592.8335,218.31 C592.8335,216.623325 593.19383,215.159006 593.9145,213.917 C594.63517,212.674994 595.578161,211.640004 596.7435,210.812 C597.908839,209.983996 599.227493,209.370669 600.6995,208.972 C602.171507,208.573331 603.643493,208.374 605.1155,208.374 C606.832842,208.374 608.481159,208.565665 610.0605,208.949 C611.639841,209.332335 613.042827,209.953329 614.2695,210.812 C615.496173,211.670671 616.46983,212.766993 617.1905,214.101 C617.91117,215.435007 618.2715,217.052657 618.2715,218.954 L611.2795,218.954 C611.218166,217.972662 611.011168,217.160003 610.6585,216.516 C610.305832,215.871997 609.83817,215.366002 609.2555,214.998 C608.67283,214.629998 608.005837,214.369334 607.2545,214.216 C606.503163,214.062666 605.682838,213.986 604.7935,213.986 C604.21083,213.986 603.62817,214.047333 603.0455,214.17 C602.46283,214.292667 601.933836,214.507332 601.4585,214.814 C600.983164,215.120668 600.592168,215.503998 600.2855,215.964 C599.978832,216.424002 599.8255,217.006663 599.8255,217.712 C599.8255,218.356003 599.948165,218.877331 600.1935,219.276 C600.438835,219.674669 600.92183,220.042665 601.6425,220.38 C602.36317,220.717335 603.359827,221.054665 604.6325,221.392 C605.905173,221.729335 607.568823,222.158664 609.6235,222.68 C610.236836,222.802667 611.087828,223.024998 612.1765,223.347 C613.265172,223.669002 614.346161,224.182663 615.4195,224.888 C616.492839,225.593337 617.420496,226.536327 618.2025,227.717 C618.984504,228.897673 619.3755,230.407991 619.3755,232.248 C619.3755,233.750674 619.08417,235.145994 618.5015,236.434 C617.91883,237.722006 617.052506,238.833662 615.9025,239.769 C614.752494,240.704338 613.326509,241.432664 611.6245,241.954 C609.922491,242.475336 607.952178,242.736 605.7135,242.736 C603.904158,242.736 602.148509,242.513669 600.4465,242.069 C598.744491,241.624331 597.24184,240.926671 595.9385,239.976 C594.63516,239.025329 593.600171,237.814007 592.8335,236.342 C592.06683,234.869993 591.698833,233.12201 591.7295,231.098 L598.7215,231.098 Z M684.638,231.098 C684.638,232.202006 684.837331,233.137329 685.236,233.904 C685.634669,234.67067 686.163663,235.291664 686.823,235.767 C687.482337,236.242336 688.256662,236.594999 689.146,236.825 C690.035338,237.055001 690.955329,237.17 691.906,237.17 C692.550003,237.17 693.239996,237.116334 693.976,237.009 C694.712004,236.901666 695.401997,236.694668 696.046,236.388 C696.690003,236.081332 697.226665,235.659669 697.656,235.123 C698.085335,234.586331 698.3,233.904004 698.3,233.076 C698.3,232.186662 698.016336,231.466003 697.449,230.914 C696.881664,230.361997 696.138005,229.902002 695.218,229.534 C694.297995,229.165998 693.255339,228.844001 692.09,228.568 C690.924661,228.291999 689.744006,227.985335 688.548,227.648 C687.321327,227.341332 686.125339,226.965669 684.96,226.521 C683.794661,226.076331 682.752005,225.501337 681.832,224.796 C680.911995,224.090663 680.168336,223.209005 679.601,222.151 C679.033664,221.092995 678.75,219.812674 678.75,218.31 C678.75,216.623325 679.11033,215.159006 679.831,213.917 C680.55167,212.674994 681.494661,211.640004 682.66,210.812 C683.825339,209.983996 685.143993,209.370669 686.616,208.972 C688.088007,208.573331 689.559993,208.374 691.032,208.374 C692.749342,208.374 694.397659,208.565665 695.977,208.949 C697.556341,209.332335 698.959327,209.953329 700.186,210.812 C701.412673,211.670671 702.38633,212.766993 703.107,214.101 C703.82767,215.435007 704.188,217.052657 704.188,218.954 L697.196,218.954 C697.134666,217.972662 696.927668,217.160003 696.575,216.516 C696.222332,215.871997 695.75467,215.366002 695.172,214.998 C694.58933,214.629998 693.922337,214.369334 693.171,214.216 C692.419663,214.062666 691.599338,213.986 690.71,213.986 C690.12733,213.986 689.54467,214.047333 688.962,214.17 C688.37933,214.292667 687.850336,214.507332 687.375,214.814 C686.899664,215.120668 686.508668,215.503998 686.202,215.964 C685.895332,216.424002 685.742,217.006663 685.742,217.712 C685.742,218.356003 685.864665,218.877331 686.11,219.276 C686.355335,219.674669 686.83833,220.042665 687.559,220.38 C688.27967,220.717335 689.276327,221.054665 690.549,221.392 C691.821673,221.729335 693.485323,222.158664 695.54,222.68 C696.153336,222.802667 697.004328,223.024998 698.093,223.347 C699.181672,223.669002 700.262661,224.182663 701.336,224.888 C702.409339,225.593337 703.336996,226.536327 704.119,227.717 C704.901004,228.897673 705.292,230.407991 705.292,232.248 C705.292,233.750674 705.00067,235.145994 704.418,236.434 C703.83533,237.722006 702.969006,238.833662 701.819,239.769 C700.668994,240.704338 699.243009,241.432664 697.541,241.954 C695.838991,242.475336 693.868678,242.736 691.63,242.736 C689.820658,242.736 688.065009,242.513669 686.363,242.069 C684.660991,241.624331 683.15834,240.926671 681.855,239.976 C680.55166,239.025329 679.516671,237.814007 678.75,236.342 C677.98333,234.869993 677.615333,233.12201 677.646,231.098 L684.638,231.098 Z" id="bascss" fill="#FFFFFF"></path>
    </g>
</svg>